<svg xmlns="http://www.w3.org/2000/svg" viewBox="0 0 900 900" role="img" aria-label="Pastel de cumpleaños con corazones">
  <defs>
    <linearGradient id="bg" x1="0" x2="1" y1="0" y2="1">
      <stop offset="0" stop-color="#fff8fb"/>
      <stop offset="1" stop-color="#f6ccd7"/>
    </linearGradient>
    <linearGradient id="cake" x1="0" x2="1">
      <stop offset="0" stop-color="#9b2f55"/>
      <stop offset="1" stop-color="#c94f72"/>
    </linearGradient>
    <filter id="shadow" x="-20%" y="-20%" width="140%" height="140%">
      <feDropShadow dx="0" dy="22" stdDeviation="22" flood-color="#5c253b" flood-opacity=".22"/>
    </filter>
  </defs>
  <rect width="900" height="900" rx="96" fill="url(#bg)"/>
  <circle cx="186" cy="178" r="54" fill="#d7a94d" opacity=".28"/>
  <circle cx="724" cy="190" r="34" fill="#2e7188" opacity=".18"/>
  <circle cx="760" cy="674" r="72" fill="#d7a94d" opacity=".16"/>
  <g fill="#c94f72" opacity=".26">
    <path d="M188 316c-33-28-82-4-82 38 0 54 82 91 82 91s82-37 82-91c0-42-49-66-82-38z"/>
    <path d="M714 352c-25-21-62-3-62 29 0 41 62 69 62 69s62-28 62-69c0-32-37-50-62-29z"/>
    <path d="M286 662c-21-18-53-2-53 25 0 35 53 59 53 59s53-24 53-59c0-27-32-43-53-25z"/>
  </g>
  <g filter="url(#shadow)">
    <ellipse cx="450" cy="704" rx="278" ry="54" fill="#5a2439" opacity=".16"/>
    <rect x="236" y="508" width="428" height="172" rx="38" fill="url(#cake)"/>
    <path d="M236 548c44 34 88 34 132 0s88-34 132 0 88 34 164-8v-32H236z" fill="#fff0f4"/>
    <rect x="286" y="388" width="328" height="140" rx="34" fill="#f7b7c6"/>
    <path d="M286 423c34 28 68 28 102 0s68-28 102 0 68 28 124-7v-28H286z" fill="#fff8fb"/>
    <rect x="338" y="294" width="42" height="110" rx="18" fill="#fff4c4"/>
    <rect x="429" y="276" width="42" height="128" rx="18" fill="#fff4c4"/>
    <rect x="520" y="294" width="42" height="110" rx="18" fill="#fff4c4"/>
    <path d="M359 242c22 29 20 52 0 66-20-14-22-37 0-66z" fill="#d7a94d"/>
    <path d="M450 222c25 33 23 59 0 75-23-16-25-42 0-75z" fill="#d7a94d"/>
    <path d="M541 242c22 29 20 52 0 66-20-14-22-37 0-66z" fill="#d7a94d"/>
    <g fill="#fff8fb" opacity=".9">
      <circle cx="334" cy="592" r="12"/>
      <circle cx="418" cy="622" r="12"/>
      <circle cx="506" cy="586" r="12"/>
      <circle cx="586" cy="626" r="12"/>
    </g>
  </g>
</svg>
